<?xml version="1.0" encoding="UTF-8" standalone="no"?>
<!-- Created with Inkscape (http://www.inkscape.org/) -->

<svg
        xmlns:dc="http://purl.org/dc/elements/1.1/"
        xmlns:cc="http://creativecommons.org/ns#"
        xmlns:rdf="http://www.w3.org/1999/02/22-rdf-syntax-ns#"
        xmlns="http://www.w3.org/2000/svg"
        xmlns:xlink="http://www.w3.org/1999/xlink"
        xmlns:sodipodi="http://sodipodi.sourceforge.net/DTD/sodipodi-0.dtd"
        xmlns:inkscape="http://www.inkscape.org/namespaces/inkscape"
        width="574.25879"
        height="218.8972"
        id="svg2"
        version="1.1"
        inkscape:version="0.48.4 r9939"
        sodipodi:docname="whisperation-logo.svg">
    <defs
            id="defs4">
        <linearGradient
                id="linearGradient3820">
            <stop
                    style="stop-color:#28ac2e;stop-opacity:1;"
                    offset="0"
                    id="stop3822"/>
            <stop
                    style="stop-color:#c37800;stop-opacity:0.68333334;"
                    offset="1"
                    id="stop3824"/>
        </linearGradient>
        <linearGradient
                inkscape:collect="always"
                xlink:href="#linearGradient3820"
                id="linearGradient3844"
                gradientUnits="userSpaceOnUse"
                x1="433.91989"
                y1="-3.2891159"
                x2="457.55609"
                y2="-3.2891159"
                gradientTransform="matrix(0.42949679,0,0,0.99194735,196.02521,219.92512)"/>
        <linearGradient
                inkscape:collect="always"
                xlink:href="#linearGradient3820"
                id="linearGradient3850"
                gradientUnits="userSpaceOnUse"
                x1="433.91989"
                y1="-3.2891159"
                x2="457.55609"
                y2="-3.2891159"
                gradientTransform="matrix(0.99821603,0,0,0.99074438,-55.677092,218.5637)"/>
        <linearGradient
                inkscape:collect="always"
                xlink:href="#linearGradient3820"
                id="linearGradient3821"
                gradientUnits="userSpaceOnUse"
                gradientTransform="matrix(0.99821603,0,0,0.99074438,-55.677092,218.5637)"
                x1="433.91989"
                y1="-3.2891159"
                x2="457.55609"
                y2="-3.2891159"/>
        <linearGradient
                inkscape:collect="always"
                xlink:href="#linearGradient3820"
                id="linearGradient3823"
                gradientUnits="userSpaceOnUse"
                gradientTransform="matrix(0.42949679,0,0,0.99194735,196.02521,219.92512)"
                x1="433.91989"
                y1="-3.2891159"
                x2="457.55609"
                y2="-3.2891159"/>
    </defs>
    <sodipodi:namedview
            id="base"
            pagecolor="#ffffff"
            bordercolor="#666666"
            borderopacity="1.0"
            inkscape:pageopacity="0.0"
            inkscape:pageshadow="2"
            inkscape:zoom="1.4"
            inkscape:cx="346.94412"
            inkscape:cy="58.796235"
            inkscape:document-units="px"
            inkscape:current-layer="layer1"
            showgrid="false"
            inkscape:window-width="1920"
            inkscape:window-height="1026"
            inkscape:window-x="-4"
            inkscape:window-y="-3"
            inkscape:window-maximized="1"
            fit-margin-top="0"
            fit-margin-left="0"
            fit-margin-right="0"
            fit-margin-bottom="0"/>
    <metadata
            id="metadata7">
        <rdf:RDF>
            <cc:Work
                    rdf:about="">
                <dc:format>image/svg+xml</dc:format>
                <dc:type
                        rdf:resource="http://purl.org/dc/dcmitype/StillImage"/>
                <dc:title/>
            </cc:Work>
        </rdf:RDF>
    </metadata>
    <g
            inkscape:label="Layer 1"
            inkscape:groupmode="layer"
            id="layer1"
            transform="translate(-26.178688,-179.53981)">
        <flowRoot
                xml:space="preserve"
                id="flowRoot3203"
                style="font-size:40px;font-style:normal;font-weight:normal;line-height:125%;letter-spacing:0px;word-spacing:0px;fill:#000000;fill-opacity:1;stroke:none;font-family:Sans"><flowRegion
         id="flowRegion3205"><rect
           id="rect3207"
           width="42.426407"
           height="41.416256"
           x="559.62451"
           y="210.90511" /></flowRegion>
            <flowPara
                    id="flowPara3209">s</flowPara></flowRoot>
        <g
                id="g3792">
            <flowRoot
                    inkscape:export-ydpi="53.169998"
                    inkscape:export-xdpi="53.169998"
                    inkscape:export-filename="/home/dharmax/Projects/Whisperation/server/pages/img/logo.png"
                    style="font-size:40px;font-style:normal;font-variant:normal;font-weight:bold;font-stretch:normal;text-align:center;line-height:125%;letter-spacing:0px;word-spacing:0px;writing-mode:lr-tb;text-anchor:middle;fill:#000000;fill-opacity:1;stroke:none;font-family:TlwgMono;-inkscape-font-specification:TlwgMono Bold"
                    id="flowRoot2985"
                    xml:space="preserve"><flowRegion
           id="flowRegion2987"><rect
             style="font-size:40px;font-style:normal;font-variant:normal;font-weight:bold;font-stretch:normal;text-align:center;line-height:125%;writing-mode:lr-tb;text-anchor:middle;font-family:TlwgMono;-inkscape-font-specification:TlwgMono Bold"
             y="189.50504"
             x="88.571426"
             height="165.71428"
             width="251.42857"
             id="rect2989" /></flowRegion>
                <flowPara
                        style="fill:#ffffff"
                        id="flowPara2999">WSP</flowPara></flowRoot>
            <g
                    inkscape:export-ydpi="53.169998"
                    inkscape:export-xdpi="53.169998"
                    inkscape:export-filename="/home/dharmax/Projects/Whisperation/server/pages/img/logo.png"
                    transform="matrix(0.90558089,-0.77983743,1.1682057,1.7228687,-503.4184,216.18722)"
                    id="g3878">
                <rect
                        style="fill:url(#linearGradient3821);fill-opacity:1;stroke:#000000;stroke-width:0.99447316"
                        id="rect3001"
                        width="21.654711"
                        height="80.583923"
                        x="378.17438"
                        y="161.7807"
                        transform="matrix(0.99999592,-0.00285706,0.00290032,0.99999579,0,0)"/>
                <g
                        id="g3024"
                        transform="matrix(-0.00445532,-0.99999008,0.99999008,-0.00445532,61.854434,628.32981)">
                    <path
                            sodipodi:nodetypes="ccccc"
                            inkscape:connector-curvature="0"
                            id="rect3009"
                            d="m 384.8059,318.6941 -23.37201,6.53663 -15.55229,4.34963 38.9243,10.88625 z"
                            style="fill:#ffffff;stroke:#000000;stroke-width:0.70070833"/>
                    <path
                            style="fill:#000000;stroke:#000000;stroke-width:0.37253743"
                            d="m 366.75569,323.53002 -12.63231,3.41846 -8.40586,2.27474 21.03817,5.69319 z"
                            id="path3018"
                            inkscape:connector-curvature="0"
                            sodipodi:nodetypes="ccccc"/>
                </g>
                <rect
                        transform="matrix(0.9999779,-0.00664833,0.00124636,0.99999922,0,0)"
                        y="163.07315"
                        x="382.69601"
                        height="80.68177"
                        width="9.3172503"
                        id="rect3828"
                        style="fill:url(#linearGradient3823);fill-opacity:1;stroke:#333333;stroke-width:0.65271598"/>
            </g>
            <g
                    inkscape:export-ydpi="53.169998"
                    inkscape:export-xdpi="53.169998"
                    inkscape:export-filename="/home/dharmax/Projects/Whisperation/server/pages/img/logo.png"
                    id="text3874"
                    style="font-size:144.52926636px;font-style:italic;font-variant:normal;font-weight:500;font-stretch:normal;text-align:start;line-height:125%;letter-spacing:0px;word-spacing:0px;writing-mode:lr-tb;text-anchor:start;fill:#000000;fill-opacity:1;stroke:none;font-family:URW Chancery L;-inkscape-font-specification:URW Chancery L Medium Italic"
                    transform="scale(0.91112405,1.0975454)">
                <path
                        sodipodi:nodetypes="cccccscccscccccccccccsccscccc"
                        inkscape:connector-curvature="0"
                        id="path3950"
                        style="font-style:normal;font-weight:normal"
                        d="m 156.67869,278.24561 43.35878,-63.73741 c -0.28906,17.3435 -1.87889,53.47585 -3.17965,66.628 l 9.24988,-3.03512 c 4.91399,-7.51551 6.64835,-9.97253 15.89821,-21.39033 27.31601,-33.53076 36.85497,-50.00714 36.85497,-64.17099 0,-3.90229 -0.57812,-6.21477 -2.16794,-9.39441 -2.02341,-1.15623 -2.457,-1.30076 -5.78117,-2.31246 -4.04682,1.87887 -5.78118,2.89058 -9.24988,5.9257 3.90229,4.04681 5.34759,7.80458 5.34759,13.73028 0,6.35928 -2.457,14.3084 -6.93741,23.12468 -5.63663,10.83968 -13.58577,21.67941 -31.07379,42.05802 0.43359,-6.64834 0.72265,-11.12876 0.72265,-12.71858 l 0.86717,-20.37863 c 0.28906,-6.93739 0.72265,-15.46464 1.30077,-25.43715 0.28905,-3.75775 0.57811,-7.51552 0.72264,-11.27328 l -8.3827,3.32417 c -6.64834,11.27327 -31.79644,48.56185 -42.63613,63.30382 1.58982,-11.70686 7.22647,-43.50333 10.69517,-60.84682 3.03511,-1.0117 4.76947,-2.02341 7.51552,-4.62494 -28.03865,0.28906 -29.77304,0.28906 -34.97608,2.02341 -12.42951,4.04682 -20.52316,14.01935 -20.52316,25.43715 0,4.76947 0.37228,34.1976 2.82927,38.38895 l 6.91989,-32.17419 c -3.32417,-5.05852 -0.0657,-9.24988 -0.0657,-14.16387 0,-5.92569 2.89059,-10.4061 8.23817,-12.28498 3.4687,-1.30077 6.93741,-1.58983 17.7771,-1.73435 -1.58982,12.28497 -4.914,32.80819 -12.71858,78.62392 l 9.39441,-2.89059"/>
                <path
                        id="path3952"
                        style="font-size:65.00091553%;baseline-shift:sub"
                        d="m 236.19333,292.83931 6.78684,-2.41903 6.53003,-21.6153 c 0.96832,-0.61432 2.12434,-1.22012 2.3163,-1.30545 6.66306,-3.83528 10.69846,-5.72096 11.7308,-5.67408 0.65694,0.0298 1.09635,0.70808 1.05799,1.55271 -0.0511,1.12619 -0.5075,2.89227 -2.05151,7.90043 -3.4207,11.12971 -4.79406,16.52181 -4.90913,19.05572 -0.0511,1.12618 0.27312,2.26941 1.22448,4.09941 5.281,-2.39337 12.23414,-6.40357 17.56628,-9.92312 l 0.78053,-2.69178 c -8.19021,4.33019 -9.53393,4.92747 -10.75396,4.87207 -0.84464,-0.0384 -1.36512,-1.00242 -1.29693,-2.50399 0.0852,-1.87697 0.77191,-4.57302 2.64435,-10.60073 3.50602,-10.93775 5.26756,-16.59435 5.28461,-16.96974 0.0426,-0.93849 -0.67834,-1.62952 -1.89837,-1.68492 -1.97082,-0.0895 -8.60833,3.18271 -20.68459,10.25173 l 3.76191,-12.43082 c 2.67,-9.09488 3.74061,-11.96158 5.06718,-14.25239 1.4332,-2.5681 3.45943,-3.69864 5.99334,-3.58357 1.22003,0.0554 1.96656,0.18334 5.59256,1.10033 l 4.29545,-5.54151 c -1.67222,-0.45211 -2.41875,-0.58005 -3.82648,-0.64397 -5.16167,-0.23439 -7.94722,1.04975 -15.07091,6.74496 -5.07616,4.09543 -5.8994,5.65678 -9.37124,17.91268 l -10.76953,38.35036"
                        inkscape:connector-curvature="0"/>
                <path
                        id="path3954"
                        style="font-size:65.00091553%;baseline-shift:sub"
                        d="m 295.29423,246.34515 c 2.83242,-2.31648 3.02864,-2.49566 6.33029,-4.79082 -0.51195,-1.15176 -0.9471,-1.92386 -1.12201,-2.21392 -0.51195,-1.15176 -0.60154,-1.24987 -1.27136,-3.06709 -0.17065,-0.38391 -0.3413,-0.76783 -0.50769,-1.2456 -0.48629,0.35409 -1.06643,0.70391 -1.36076,0.97267 -0.39244,0.35835 -1.1688,0.88735 -2.14138,1.59552 -0.48628,0.35409 -1.16453,0.7935 -2.03474,1.31824 -0.38818,0.2645 -0.77636,0.529 -1.16028,0.69965 0.56319,2.0945 1.33964,3.63444 3.26793,6.73135 m 4.86466,35.76883 c -9.13295,4.38142 -9.32492,4.46675 -10.54495,4.41135 -1.03234,-0.0469 -1.6424,-1.10905 -1.56995,-2.70447 0.0426,-0.93849 0.40513,-2.70883 1.06198,-4.74793 5.68122,-19.49085 6.79017,-23.2022 6.82427,-23.95298 0.0256,-0.5631 -0.42663,-0.9598 -1.08357,-0.98963 -1.59543,-0.0725 -7.27314,2.77312 -15.20311,7.58534 l -0.30702,2.61924 c 5.67343,-2.75172 6.15121,-2.91811 6.99584,-2.87975 0.75079,0.0341 1.10062,0.61423 1.04948,1.74041 -0.0554,1.22003 -0.39661,2.52113 -2.04725,7.80658 -5.15667,16.22319 -5.15668,16.22321 -5.26322,18.56943 -0.10228,2.25236 0.76802,3.79656 2.0819,3.85622 1.59543,0.0725 4.18475,-1.03252 9.30362,-3.99751 1.83426,-1.04521 3.66853,-2.09042 5.50705,-3.22948 0.86595,-0.43089 1.73615,-0.95563 2.70021,-1.4761 l 0.49472,-2.61072"
                        inkscape:connector-curvature="0"/>
                <path
                        id="path3956"
                        style="font-size:65.00091553%;baseline-shift:sub"
                        d="m 297.43573,284.06887 c -0.1322,0.84037 -0.26014,1.5869 -0.28571,2.14999 -0.18325,4.03549 2.50436,6.9788 6.6337,7.16631 2.9093,0.13211 7.0002,-0.90467 10.08006,-2.45757 5.68196,-2.93941 9.27786,-7.57228 9.49094,-12.26471 0.15768,-3.4724 -0.46517,-4.25302 -5.57153,-7.77637 -3.09709,-2.20957 -4.33001,-4.05236 -4.2192,-6.49242 0.14489,-3.19085 2.99435,-5.88273 6.1852,-5.73783 2.15852,0.098 3.70707,1.2028 5.65242,3.92432 3.33148,-2.95211 3.33149,-2.95211 4.63249,-4.67983 -1.77469,-2.3376 -3.51521,-3.35706 -6.14297,-3.47639 -6.85094,-0.3111 -16.04348,7.45315 -16.32475,13.64715 -0.13211,2.9093 1.26719,5.22986 4.71837,7.92572 4.54327,3.49778 5.16186,4.37225 5.05532,6.71847 -0.15342,3.37854 -4.64945,7.12415 -8.30954,6.95795 -2.06467,-0.0938 -3.60896,-1.29239 -4.45369,-3.39967 -0.59301,-1.43756 -0.71679,-2.85382 -0.66574,-6.04893 -1.06643,0.70391 -1.83852,1.13906 -2.2267,1.40356 -0.7721,0.43515 -1.63805,0.86604 -2.50825,1.39077 l -1.74042,1.04948"
                        inkscape:connector-curvature="0"/>
                <path
                        id="path3958"
                        style="font-size:65.00091553%;baseline-shift:sub"
                        d="m 324.29532,311.75857 -2.95183,2.8753 c 2.71735,0.21744 13.12603,0.87818 15.94148,1.00603 0.75079,0.0341 2.06468,0.0938 4.41515,0.10645 l 3.01585,-2.21411 -10.48548,-1.04039 5.41247,-19.7852 c 1.85992,0.46062 2.888,0.60135 4.48342,0.6738 4.12934,0.18751 6.42007,-0.55485 10.31038,-3.38754 4.95248,-3.44275 6.81232,-5.05106 8.10906,-6.68493 3.50204,-4.63712 6.9612,-14.54256 7.23821,-20.64271 0.20455,-4.50473 -1.6299,-7.59739 -4.7269,-7.73802 -2.25236,-0.10228 -5.50715,1.16055 -9.48279,3.80128 l -7.94702,5.18762 c 0.32842,-1.01955 0.563,-2.04336 0.77626,-2.59793 1.00658,-3.52789 1.56532,-5.47741 1.58237,-5.8528 0.0256,-0.56309 -0.60154,-1.24987 -1.25848,-1.2797 -0.93849,-0.0426 -8.72348,3.64769 -15.85579,7.46166 l -0.67389,2.4145 c 1.24134,-0.41385 2.38883,-0.83195 2.77275,-1.0026 2.77701,-1.09644 3.34862,-1.25857 4.09941,-1.22448 1.12619,0.0511 1.74051,1.01946 1.6638,2.70873 -0.15342,3.37855 -6.89237,27.52352 -13.05135,47.18076 l -3.38708,0.0343 m 17.23712,-25.45503 c 1.59941,-6.22819 3.05383,-11.33447 4.17557,-15.32734 0.11515,-0.46499 0.4521,-1.67223 0.9042,-3.34446 8.04513,-5.2772 10.93305,-6.74478 13.37311,-6.63398 1.87697,0.0852 3.00325,2.20531 2.86262,5.30231 -0.19178,4.22318 -1.74431,9.41905 -4.32492,14.47418 -2.78534,5.422 -6.10405,8.09257 -9.95184,7.91784 -2.34622,-0.10654 -4.84604,-0.97239 -7.03874,-2.38855"
                        inkscape:connector-curvature="0"/>
                <path
                        id="path3960"
                        style="font-size:65.00091553%;baseline-shift:sub"
                        d="m 400.66928,280.43721 c -7.31564,5.78054 -11.93971,8.20374 -15.50596,8.0418 -2.34621,-0.10654 -4.24459,-1.79146 -4.79073,-4.26136 -0.3072,-1.51862 -0.35417,-2.55522 -0.23059,-5.27683 4.34251,-2.43598 7.24748,-4.27896 12.97205,-8.15686 5.24255,-3.61766 7.35401,-6.62518 7.54578,-10.84837 0.14916,-3.28469 -1.82602,-5.34927 -5.11072,-5.49843 -2.06466,-0.0938 -3.58755,0.3073 -5.80147,1.42931 -3.66,1.90273 -6.96593,4.29175 -9.03902,6.45462 -3.76228,4.15509 -7.42192,14.33356 -7.76711,21.93529 -0.25144,5.53706 2.50019,9.14158 7.28647,9.35892 5.53706,0.25144 12.56701,-3.37911 20.31772,-10.45648 l 0.12358,-2.72161 m -20.09231,-4.86215 c 2.05142,-9.96935 6.72218,-17.56276 10.75766,-17.37951 1.59543,0.0724 2.55532,1.71476 2.45304,3.96712 -0.21308,4.69243 -2.87486,7.39283 -13.2107,13.41239"
                        inkscape:connector-curvature="0"/>
                <path
                        id="path3962"
                        style="font-size:65.00091553%;baseline-shift:sub"
                        d="m 404.75345,292.99709 7.34993,-2.39347 8.25321,-26.42723 c 3.29739,-2.20132 5.49854,-3.04179 8.03245,-2.92673 2.06466,0.0938 3.25061,0.89995 4.84186,3.13518 l 3.22032,-8.78778 c -1.75755,-0.64406 -2.49982,-0.86585 -3.43831,-0.90847 -1.68927,-0.0767 -3.69845,0.67844 -6.31333,2.3465 l -5.72032,3.78405 c 0.12794,-0.74652 0.33694,-1.20724 0.34973,-1.48879 0.89142,-3.06291 1.01084,-3.62174 1.03215,-4.09099 0.0256,-0.56309 -0.51622,-1.0579 -1.17316,-1.08773 -1.22003,-0.0554 -9.66196,3.60507 -15.54441,6.8175 l -0.39661,2.52113 c 5.18715,-2.39763 5.75877,-2.55976 6.88495,-2.50862 1.22004,0.0554 1.7533,0.73791 1.69363,2.05179 -0.0597,1.31388 -1.19844,5.68216 -2.50788,9.6665 l -6.56421,20.29716"
                        inkscape:connector-curvature="0"/>
                <path
                        id="path3964"
                        style="font-size:65.00091553%;baseline-shift:sub"
                        d="m 471.33425,281.57146 c -7.25173,4.3728 -8.69782,5.15352 -9.6363,5.1109 -0.65694,-0.0298 -1.0921,-0.80193 -1.04096,-1.92811 0.11081,-2.44006 2.83196,-12.66115 6.7773,-24.98958 1.09626,-1.36085 1.29675,-1.63388 2.87503,-3.25497 -4.45785,-1.23689 -7.72551,-1.76144 -11.761,-1.94469 -3.84779,-0.17473 -5.64797,0.11969 -8.15622,1.51047 -3.46804,1.8174 -7.5418,4.54772 -8.82149,5.8062 -3.65138,3.78396 -8.16835,16.27455 -8.51354,23.87628 -0.20456,4.50473 1.16064,7.57607 3.50686,7.68261 2.06467,0.0938 5.24692,-1.64259 17.36153,-9.55625 -1.13452,4.27442 -1.73587,7.16242 -1.78701,8.2886 -0.0554,1.22004 0.4736,1.9964 1.41208,2.03901 1.12618,0.0511 1.12619,0.0511 8.85142,-4.39421 2.80258,-1.65953 5.02929,-3.0631 8.71486,-5.52891 l 0.21744,-2.71735 m -18.32606,-0.26793 c -5.72031,3.78405 -8.60823,5.25163 -10.2975,5.17492 -1.50158,-0.0682 -2.36335,-1.80008 -2.22698,-4.80323 0.21308,-4.69243 2.00445,-11.00596 4.59358,-16.24879 2.48675,-5.05939 4.64092,-6.93646 7.83177,-6.79156 1.68928,0.0767 4.57728,0.67806 7.92174,1.58227 -2.20086,7.04726 -2.95582,9.17595 -3.07098,9.64093 -0.66963,2.32065 -1.24541,4.64556 -1.91931,7.06005 -0.11515,0.46498 -0.44784,1.57838 -0.99379,3.24635 l -1.83853,1.13906"
                        inkscape:connector-curvature="0"/>
                <path
                        id="path3966"
                        style="font-size:65.00091553%;baseline-shift:sub"
                        d="m 498.66043,281.3971 c -7.32426,3.8993 -10.39987,5.35836 -11.71375,5.2987 -1.22003,-0.0554 -2.61081,-2.56366 -2.52132,-4.53448 0.0597,-1.31388 1.98324,-8.46779 4.87078,-18.21108 1.31814,-0.0342 2.25663,0.008 2.72587,0.0297 l 3.75821,0.0766 c 0.37539,0.017 1.31814,-0.0342 2.82824,-0.1537 l 3.68984,-2.55967 -12.01263,-0.54549 4.44433,-15.03301 c -1.82574,0.85751 -2.58931,1.10497 -4.02687,1.69798 -0.67399,0.34557 -1.43757,0.59302 -2.2054,0.93432 -0.38392,0.17065 -0.86169,0.33704 -1.33945,0.50343 l -3.16047,11.61175 c -0.8489,0.0555 -1.41199,0.0299 -1.69354,0.0171 l -2.25236,-0.10228 c -0.1877,-0.009 -0.65694,-0.0298 -1.41199,0.0299 -1.06217,0.61006 -1.15602,0.6058 -2.81111,1.84723 -0.29007,0.17491 -0.77636,0.529 -1.45461,0.96841 l 2.25237,0.10228 4.31704,0.19603 2.06467,0.0938 c -5.92006,20.60851 -5.92006,20.60853 -6.05217,23.51784 -0.13638,3.00315 1.68529,6.37735 3.46841,6.45832 2.06467,0.0938 8.62538,-3.5581 17.94167,-9.90608 l 0.29424,-2.33769"
                        inkscape:connector-curvature="0"/>
                <path
                        id="path3968"
                        style="font-size:65.00091553%;baseline-shift:sub"
                        d="m 518.96489,246.34515 c 2.83241,-2.31648 3.02864,-2.49566 6.33029,-4.79082 -0.51195,-1.15176 -0.9471,-1.92386 -1.12202,-2.21392 -0.51195,-1.15176 -0.60154,-1.24987 -1.27135,-3.06709 -0.17065,-0.38391 -0.3413,-0.76783 -0.50769,-1.2456 -0.48629,0.35409 -1.06643,0.70391 -1.36076,0.97267 -0.39244,0.35835 -1.1688,0.88735 -2.14138,1.59552 -0.48629,0.35409 -1.16454,0.7935 -2.03475,1.31824 -0.38818,0.2645 -0.77636,0.529 -1.16027,0.69965 0.56318,2.0945 1.33963,3.63444 3.26793,6.73135 m 4.86465,35.76883 c -9.13295,4.38142 -9.32492,4.46675 -10.54495,4.41135 -1.03233,-0.0469 -1.6424,-1.10905 -1.56995,-2.70447 0.0426,-0.93849 0.40513,-2.70883 1.06198,-4.74793 5.68122,-19.49085 6.79018,-23.2022 6.82427,-23.95298 0.0256,-0.5631 -0.42663,-0.9598 -1.08357,-0.98963 -1.59542,-0.0725 -7.27313,2.77312 -15.2031,7.58534 l -0.30703,2.61924 c 5.67344,-2.75172 6.15121,-2.91811 6.99585,-2.87975 0.75079,0.0341 1.10061,0.61423 1.04947,1.74041 -0.0554,1.22003 -0.39661,2.52113 -2.04725,7.80658 -5.15667,16.22319 -5.15667,16.22321 -5.26321,18.56943 -0.10228,2.25236 0.76802,3.79656 2.0819,3.85622 1.59542,0.0725 4.18474,-1.03252 9.30361,-3.99751 1.83426,-1.04521 3.66853,-2.09042 5.50705,-3.22948 0.86595,-0.43089 1.73616,-0.95563 2.70021,-1.4761 l 0.49472,-2.61072"
                        inkscape:connector-curvature="0"/>
                <path
                        id="path3970"
                        style="font-size:65.00091553%;baseline-shift:sub"
                        d="m 552.16037,254.63319 c -3.75394,-0.17046 -9.88385,2.27841 -15.60843,6.15631 -6.21086,4.23198 -10.87727,13.80048 -11.29917,23.09148 -0.25996,5.72477 2.7647,9.52976 7.73867,9.75563 2.62776,0.11933 5.29814,-0.69984 9.71746,-2.75617 4.81175,-2.41467 8.0153,-4.62026 9.80685,-6.79591 3.98407,-4.89736 7.40487,-13.95817 7.69893,-20.43371 0.23013,-5.06783 -3.08034,-8.79176 -8.05431,-9.01763 m -5.08042,4.18928 c 3.75394,0.17047 5.93395,3.93711 5.67825,9.56803 -0.17898,3.94163 -1.71447,8.76211 -4.26951,13.25415 -2.87067,5.23004 -6.38134,7.98593 -9.94758,7.82399 -3.84779,-0.17473 -6.13018,-3.75794 -5.88727,-9.1073 0.49435,-10.88643 7.85671,-21.83718 14.42611,-21.53887"
                        inkscape:connector-curvature="0"/>
                <path
                        sodipodi:nodetypes="cccccccccccccsccccccscccscccc"
                        inkscape:connector-curvature="0"
                        id="path3972"
                        style="font-size:65.00091553%;baseline-shift:sub"
                        d="m 569.80416,290.59084 6.53856,-21.80299 c 12.06773,-6.88133 12.35356,-6.9624 13.66743,-6.90274 0.65694,0.0298 1.01103,0.51612 0.97694,1.26691 -0.0639,1.40773 -0.97666,4.93989 -4.18409,15.51504 -2.44396,8.25876 -2.8918,9.83715 -2.97277,11.62028 -0.0597,1.31388 0.26033,1.98151 1.21595,3.71766 3.86756,-1.85614 33.01626,6.11687 39.80726,1.53506 m -2.35189,-0.6508 -341.02688,63.78132 340.82513,-60.84875 m -14.7012,-3.5781 c 25.65048,3.6216 -13.9315,-4.66818 -14.86999,-4.7108 -0.93848,-0.0426 -1.4547,-3.70373 -1.38651,-5.20531 0.0895,-1.97082 0.88707,-5.038 2.96425,-11.43258 5.12683,-15.56625 5.12684,-15.56627 5.15667,-16.22321 0.0469,-1.03233 -0.58449,-1.62526 -1.80453,-1.68066 -1.40772,-0.0639 -3.51075,0.68696 -6.98732,2.69206 l -13.2195,7.39329 c 0.98527,-3.05865 2.66148,-8.90719 2.69558,-9.65798 0.0298,-0.65694 -0.50769,-1.2456 -1.16463,-1.27544 -1.03234,-0.0469 -7.94713,3.11869 -15.07943,6.93267 l -0.6739,2.41449 c 6.1299,-2.44886 6.50956,-2.52567 7.3542,-2.48731 0.65694,0.0298 1.10061,0.61423 1.06652,1.36502 -0.0895,1.97082 -2.22634,9.67929 -4.96036,18.11297 l -2.50371,7.50372 c -0.21753,0.64842 -0.76775,2.41024 -1.54401,5.00816 l 7.16223,-2.40198"/>
            </g>
            <path
                    transform="translate(-16.25,23.75)"
                    d="m 615.18289,223.53201 c 0,10.87889 -9.94974,19.69798 -22.22336,19.69798 -12.27362,0 -22.22335,-8.81909 -22.22335,-19.69798 0,-10.87889 9.94973,-19.69797 22.22335,-19.69797 12.27362,0 22.22336,8.81908 22.22336,19.69797 z"
                    sodipodi:ry="19.697975"
                    sodipodi:rx="22.223356"
                    sodipodi:cy="223.53201"
                    sodipodi:cx="592.95953"
                    id="path3217"
                    style="fill:none;stroke:#000000;stroke-width:3;stroke-miterlimit:4;stroke-dasharray:none"
                    sodipodi:type="arc"/>
            <text
                    sodipodi:linespacing="125%"
                    id="text3211"
                    y="258.02142"
                    x="563.52875"
                    style="font-size:40px;font-style:normal;font-variant:normal;font-weight:normal;font-stretch:normal;text-align:start;line-height:125%;letter-spacing:0px;word-spacing:0px;writing-mode:lr-tb;text-anchor:start;fill:#000000;fill-opacity:1;stroke:none;font-family:Sans;-inkscape-font-specification:Sans"
                    xml:space="preserve"><tspan
           y="258.02142"
           x="563.52875"
           id="tspan3215"
           sodipodi:role="line">c</tspan></text>
        </g>
    </g>
</svg>
